{"title":"Cloverfield - AVM","uid":5045173,"size":260148193,"categoryP":"video","categoryS":"handheld","magnet":"?xt=urn:btih:99c52ddcd4138adaebbf3e8141d73949a5da08d2&amp;dn=Cloverfield+-+AVM&amp;tr=udp%3A%2F%2Ftracker.openbittorrent.com%3A80&amp;tr=udp%3A%2F%2Fopen.demonii.com%3A1337&amp;tr=udp%3A%2F%2Ftracker.coppersurfer.tk%3A6969&amp;tr=udp%3A%2F%2Fexodus.desync.com%3A6969","seeders":0,"leechers":0,"uploader":"AVIDM","files":1,"time":1249590993,"description":"AVIDMobile - http://www.avidmobile.com.ar (Mobile media)\n\nVideo\nID                               : 1\nFormat                           : MPEG-4 Visual\nFormat profile                   : Advanced Simple@L5\nFormat settings, BVOP            : Yes\nFormat settings, QPel            : No\nFormat settings, GMC             : No warppoints\nFormat settings, Matrix          : Default (H.263)\nCodec ID                         : 20\nDuration                         : 1h 24mn\nBit rate mode                    : Variable\nBit rate                         : 344 Kbps\nMaximum bit rate                 : 1 221 Kbps\nWidth                            : 320 pixels\nHeight                           : 240 pixels\nDisplay aspect ratio             : 4/3\nFrame rate mode                  : Variable\nFrame rate                       : 23.976 fps\nMinimum frame rate               : 23.974 fps\nMaximum frame rate               : 23.981 fps\nResolution                       : 24 bits\nColorimetry                      : 4:2:0\nScan type                        : Progressive\nBits/(Pixel*Frame)               : 0.187\nStream size                      : 208 MiB (84%)\n\n\nAudio\nID                               : 2\nFormat                           : AAC\nFormat/Info                      : Advanced Audio Codec\nFormat version                   : Version 4\nFormat profile                   : LC\nFormat settings, SBR             : No\nCodec ID                         : 40\nDuration                         : 1h 24mn\nBit rate mode                    : Variable\nBit rate                         : 62.6 Kbps\nMaximum bit rate                 : 164 Kbps\nChannel(s)                       : 2 channels\nChannel positions                : L R\nSampling rate                    : 22.05 KHz\nResolution                       : 16 bits\nStream size                      : 37.9 MiB (15%)","torrent":{"xt":"urn:btih:99c52ddcd4138adaebbf3e8141d73949a5da08d2","amp;dn":"Cloverfield+-+AVM","amp;tr":["udp%3A%2F%2Ftracker.openbittorrent.com%3A80","udp%3A%2F%2Fopen.demonii.com%3A1337","udp%3A%2F%2Ftracker.coppersurfer.tk%3A6969","udp%3A%2F%2Fexodus.desync.com%3A6969"],"infoHash":"99c52ddcd4138adaebbf3e8141d73949a5da08d2","infoHashBuffer":{"type":"Buffer","data":[153,197,45,220,212,19,138,218,235,191,62,129,65,215,57,73,165,218,8,210]},"announce":[],"urlList":[]}}